<?xml version="1.0" encoding="utf-8"?>
<!-- Generator: Adobe Illustrator 21.0.0, SVG Export Plug-In . SVG Version: 6.00 Build 0)  -->
<svg version="1.1" id="Layer_1" focusable="false" xmlns="http://www.w3.org/2000/svg" xmlns:xlink="http://www.w3.org/1999/xlink"
	 x="0px" y="0px" viewBox="0 0 512 512" style="enable-background:new 0 0 512 512;" xml:space="preserve">
<style type="text/css">
	.st0{fill:#FFFFFF;}
</style>
<path class="st0" d="M128,116V76c0-8.8,7.2-16,16-16h352c8.8,0,16,7.2,16,16v40c0,8.8-7.2,16-16,16H144C135.2,132,128,124.8,128,116
	z M144,292h352c8.8,0,16-7.2,16-16v-40c0-8.8-7.2-16-16-16H144c-8.8,0-16,7.2-16,16v40C128,284.8,135.2,292,144,292z M144,452h352
	c8.8,0,16-7.2,16-16v-40c0-8.8-7.2-16-16-16H144c-8.8,0-16,7.2-16,16v40C128,444.8,135.2,452,144,452z M16,144h64
	c8.8,0,16-7.2,16-16V64c0-8.8-7.2-16-16-16H16C7.2,48,0,55.2,0,64v64C0,136.8,7.2,144,16,144z M16,304h64c8.8,0,16-7.2,16-16v-64
	c0-8.8-7.2-16-16-16H16c-8.8,0-16,7.2-16,16v64C0,296.8,7.2,304,16,304z M16,464h64c8.8,0,16-7.2,16-16v-64c0-8.8-7.2-16-16-16H16
	c-8.8,0-16,7.2-16,16v64C0,456.8,7.2,464,16,464z"/>
</svg>
