<?xml version="1.0" encoding="utf-8"?>
<!-- Generator: Adobe Illustrator 21.0.0, SVG Export Plug-In . SVG Version: 6.00 Build 0)  -->
<svg version="1.1" id="Layer_1" focusable="false" xmlns="http://www.w3.org/2000/svg" xmlns:xlink="http://www.w3.org/1999/xlink"
	 x="0px" y="0px" viewBox="0 0 640 512" style="enable-background:new 0 0 640 512;" xml:space="preserve">
<style type="text/css">
	.st0{fill:#FFFFFF;}
</style>
<path class="st0" d="M48,0C21.5,0,0,21.5,0,48v64c0,8.8,7.2,16,16,16h80V48C96,21.5,74.5,0,48,0z M256,412.6V352h288V96
	c0-52.9-43.1-96-96-96H111.6C121.7,13.4,128,29.9,128,48v368c0,38.9,34.6,69.6,74.8,63.1C234.2,474,256,444.5,256,412.6z M288,384
	v32c0,52.9-43.1,96-96,96h336c61.9,0,112-50.1,112-112c0-8.8-7.2-16-16-16H288z"/>
</svg>
